<svg xmlns="http://www.w3.org/2000/svg" width="32" height="32">
    <defs>
        <style>
            .cls-1,.cls-2{fill:none}.cls-5,.cls-6{stroke:none}.cls-6{fill:#010101}
        </style>
    </defs>
    <g id="ico_menuinfo_allmenu" transform="translate(-16 -138)">
        <path id="area" class="cls-1" transform="translate(16 138)" d="M0 0h32v32H0z"/>
        <g id="패스_2480" data-name="패스 2480" class="cls-2">
            <path class="cls-5" d="M0 0h20l-2 19.091A1.956 1.956 0 0 1 16 21H4a1.956 1.956 0 0 1-2-1.909z" transform="translate(22 146)"/>
            <path class="cls-6" d="M1.11 1 3 19.039v.052c0 .501.449.909 1 .909h12c.551 0 1-.408 1-.91v-.051L18.89 1H1.11M0 0h20l-2 19.09c0 1.055-.895 1.91-2 1.91H4c-1.105 0-2-.855-2-1.91L0 0z" transform="translate(22 146)"/>
        </g>
        <g id="사각형_467" data-name="사각형 467" transform="translate(20 146)" style="fill:#010101;stroke:#010101">
            <path class="cls-5" d="M0 0h24v1H0z"/>
            <rect class="cls-1" x=".5" y=".5" width="23"/>
        </g>
        <g id="패스_2477" data-name="패스 2477" class="cls-2">
            <path class="cls-5" d="M-4 0h16l2 6H-6z" transform="translate(28 141)"/>
            <path class="cls-6" d="m-3.28 1-1.333 4h17.226l-1.334-4H-3.279M-4 0h16l2 6H-6l2-6z" transform="translate(28 141)"/>
        </g>
        <g id="패스_2479" data-name="패스 2479" style="fill:#fff">
            <path class="cls-5" d="M6.559 7.5H-.56l-.875-7h8.868l-.875 7z" transform="translate(29 146)"/>
            <path class="cls-6" d="m-.867 1 .75 6h6.234l.75-6H-.867M-2 0H8L7 8h-8l-1-8z" transform="translate(29 146)"/>
        </g>
    </g>
</svg>
