<svg xmlns="http://www.w3.org/2000/svg" id="logo" width="160" height="10.191" viewBox="0 0 160 10.191">
    <defs>
        <style>
            .cls-1{fill:#1b1617}
        </style>
    </defs>
    <g id="그룹_300">
        <path id="패스_2427" d="M123.605 69.8h4.055v7.9h1.988v-7.9h4.052v-1.535h-10.1z" class="cls-1" transform="translate(-108.785 -67.88)"/>
        <path id="패스_2428" d="M91.31 68.264l-4.342 9.431h2.006l1.061-2.365.012-.028h4.565l.013.028 1.061 2.365h2.032l-4.342-9.431zm2.612 5.5h-3.184l.03-.066 1.52-3.387.042-.1.043.1 1.52 3.387z" class="cls-1" transform="translate(-86.968 -67.879)"/>
        <path id="패스_2429" d="M161.493 77.695h1.919l3.262-9.431h-2l-2.181 6.693-.044.136-.044-.136-2.181-6.693h-1.985l-2.181 6.693-.044.136-.044-.136-2.181-6.693h-2l3.262 9.431h1.931l2.208-6.473.044-.13.044.13 2.208 6.473z" class="cls-1" transform="translate(-125.567 -67.88)"/>
        <path id="패스_2430" d="M192.064 76.115a5.928 5.928 0 0 0 7.658 0 4.822 4.822 0 0 0 1.641-3.656 5.117 5.117 0 0 0-1.408-3.514 5.926 5.926 0 0 0-8.122 0 5.119 5.119 0 0 0-1.406 3.514 4.824 4.824 0 0 0 1.637 3.656zm3.828-7.1a3.526 3.526 0 0 1 3.5 3.447 3.313 3.313 0 0 1-1.021 2.379 3.552 3.552 0 0 1-4.958 0 3.315 3.315 0 0 1-1.019-2.379 3.523 3.523 0 0 1 3.498-3.45z" class="cls-1" transform="translate(-148.58 -67.326)"/>
        <path id="패스_2431" d="M381.856 76.121v-7.857h-1.9v9.431h8.173v-1.574h-6.271z" class="cls-1" transform="translate(-261.449 -67.88)"/>
        <path id="패스_2432" d="M321.164 76.117h-6.046v-2.692h5.693v-1.539h-5.693v-2.149h5.87V68.2h-7.772v9.457h7.949z" class="cls-1" transform="translate(-221.704 -67.84)"/>
        <path id="패스_2433" d="M464.842 76.117h-.042v-2.692h5.693v-1.539H464.8v-2.149h5.87V68.2h-7.772v9.457h7.949v-1.54z" class="cls-1" transform="translate(-310.842 -67.84)"/>
        <path id="패스_2434" d="M438.408 75.835h-.031a3.609 3.609 0 0 1-3.628-3.409 3.324 3.324 0 0 1 .972-2.4 3.631 3.631 0 0 1 2.6-1.04h.029a4.751 4.751 0 0 1 3.379 1.417l.923-1.458a6.57 6.57 0 0 0-4.324-1.635 6.046 6.046 0 0 0-3.67 1.327 4.8 4.8 0 0 0-1.859 3.827c0 3.117 2.7 4.889 5.364 5.028a6.1 6.1 0 0 0 4.569-1.714l-.988-1.43a4.368 4.368 0 0 1-3.336 1.487z" class="cls-1" transform="translate(-292.921 -67.313)"/>
        <path id="패스_2435" d="M353.728 74.59h3.305a5.125 5.125 0 0 0 2.664-.581 3.3 3.3 0 0 0 .036-5.224 5.139 5.139 0 0 0-2.688-.577h-5.353v9.477h2.034zm0-4.8h3.572a1.893 1.893 0 0 1 1.165.387 1.5 1.5 0 0 1 .556 1.219A1.617 1.617 0 0 1 357.3 73h-3.571z" class="cls-1" transform="translate(-244.62 -67.845)"/>
        <path id="패스_2436" d="M289.1 71.136l.014-.022h.115v6.581h1.9v-9.431h-2.4l-2.983 5.047-.04.068-.04-.068-2.991-5.047h-2.4v9.431h1.9v-6.581h.115l.014.022 2.873 4.712h1.046z" class="cls-1" transform="translate(-202.088 -67.879)"/>
        <path id="패스_2437" d="M226.123 75.928H226a6.824 6.824 0 0 1-3.855-1.533l-.719 1.634a8.754 8.754 0 0 0 4.6 1.49 5.121 5.121 0 0 0 3.733-1.206 2.639 2.639 0 0 0 .752-1.953c-.03-1.323-.869-2.123-2.638-2.517-.388-.086-1.038-.22-1.611-.337l-.823-.17c-.909-.19-1.8-.434-1.808-1.122-.009-.605.658-1.233 1.95-1.262h.118a6.348 6.348 0 0 1 3.933 1.472l.777-1.523a7.44 7.44 0 0 0-4.574-1.562 4.946 4.946 0 0 0-3.406 1.285 2.483 2.483 0 0 0-.743 1.853c.052 2.006 2.32 2.553 4.842 2.976h.012c.987.165 2.008.337 2.044 1.137a.908.908 0 0 1-.282.681 3.093 3.093 0 0 1-2.179.657z" class="cls-1" transform="translate(-167.042 -67.326)"/>
        <path id="패스_2438" d="M408.807 68.264l-4.342 9.431h2.006l1.061-2.365.012-.028h4.565l.013.028 1.061 2.365h2.032l-4.342-9.431zm2.612 5.5h-3.184l.03-.066 1.52-3.387.043-.1.043.1 1.52 3.387z" class="cls-1" transform="translate(-276.048 -67.879)"/>
        <path id="패스_2439" d="M257.609 68.945a5.926 5.926 0 0 0-8.122 0 5.12 5.12 0 0 0-1.406 3.514 4.824 4.824 0 0 0 1.639 3.656 5.928 5.928 0 0 0 7.658 0 4.823 4.823 0 0 0 1.641-3.656 5.117 5.117 0 0 0-1.41-3.514zm-1.582 5.892a3.552 3.552 0 0 1-4.958 0 3.315 3.315 0 0 1-1.019-2.379 3.5 3.5 0 0 1 7 0 3.313 3.313 0 0 1-1.023 2.38z" class="cls-1" transform="translate(-182.915 -67.326)"/>
    </g>
</svg>
